Coordinates
version=1
nRows=27
nColumns=38
inDegrees=no

Units are S.I. units (second, meters, Newtons, ...)
If the header above contains a line with 'inDegrees', this indicates whether rotational values are in degrees (yes) or radians (no).

endheader
time	pelvis_tilt	pelvis_list	pelvis_rotation	pelvis_tx	pelvis_ty	pelvis_tz	hip_flexion_r	hip_adduction_r	hip_rotation_r	knee_angle_r	ankle_angle_r	subtalar_angle_r	mtp_angle_r	hip_flexion_l	hip_adduction_l	hip_rotation_l	knee_angle_l	ankle_angle_l	subtalar_angle_l	mtp_angle_l	lumbar_extension	lumbar_bending	lumbar_rotation	arm_flex_r	arm_add_r	arm_rot_r	elbow_flex_r	pro_sup_r	wrist_flex_r	wrist_dev_r	arm_flex_l	arm_add_l	arm_rot_l	elbow_flex_l	pro_sup_l	wrist_flex_l	wrist_dev_l
1.12	0.0873294	1.20062	-1.53796	0.656869	0.457926	1.1024	-0.133382	0.0447307	-0.114704	0.43127	-0.140898	0	0	-0.164047	-0.254314	-0.232072	1.31926	-0.475139	0	0	-0.405683	0.0945037	-0.0855147	0.556347	-0.521223	0.71652	1.10799	0.496184	0	0	0.335259	-0.481789	0.245738	1.0185	0.651193	0	0
1.13	0.0924736	1.1985	-1.54545	0.656251	0.448985	1.10414	-0.147096	0.0433188	-0.118709	0.427005	-0.140268	0	0	-0.149705	-0.250923	-0.231736	1.33073	-0.462711	0	0	-0.407443	0.0901851	-0.082048	0.557288	-0.522032	0.719395	1.10763	0.492747	0	0	0.333467	-0.480603	0.244357	1.01784	0.651725	0	0
1.14	0.0977928	1.19648	-1.55282	0.655876	0.440039	1.10589	-0.161682	0.0415625	-0.122917	0.42162	-0.139203	0	0	-0.135857	-0.246422	-0.231243	1.33763	-0.446951	0	0	-0.409061	0.0861809	-0.0787025	0.55717	-0.523008	0.720471	1.10789	0.491051	0	0	0.331689	-0.478778	0.242761	1.01691	0.652684	0	0
1.15	0.103187	1.1948	-1.56002	0.655663	0.431104	1.10758	-0.17661	0.0395544	-0.127468	0.415546	-0.137467	0	0	-0.122351	-0.241271	-0.23002	1.33986	-0.434729	0	0	-0.410291	0.0823586	-0.0756341	0.556327	-0.523696	0.720278	1.10819	0.490241	0	0	0.329818	-0.476846	0.241124	1.01596	0.653489	0	0
1.16	0.107048	1.19383	-1.56596	0.655363	0.422197	1.10914	-0.191101	0.0383694	-0.13099	0.409151	-0.135484	0	0	-0.108942	-0.2369	-0.228564	1.33777	-0.426004	0	0	-0.410916	0.0788437	-0.0723087	0.555243	-0.523958	0.71966	1.10826	0.490228	0	0	0.32787	-0.475251	0.239456	1.01522	0.654038	0	0
1.17	0.111124	1.19305	-1.57145	0.655301	0.413302	1.1106	-0.205945	0.0369721	-0.135486	0.400968	-0.133691	0	0	-0.0961239	-0.231902	-0.226257	1.33104	-0.415929	0	0	-0.411292	0.0756746	-0.0695971	0.553743	-0.524447	0.718525	1.10884	0.490968	0	0	0.325815	-0.473411	0.237391	1.01456	0.65516	0	0
1.18	0.114727	1.19295	-1.5763	0.655294	0.404466	1.11189	-0.219734	0.0357909	-0.140064	0.393089	-0.132512	0	0	-0.0833123	-0.226995	-0.224365	1.31978	-0.408189	0	0	-0.411158	0.0727228	-0.0672026	0.552308	-0.524822	0.71746	1.10951	0.492369	0	0	0.323586	-0.47179	0.234917	1.01439	0.656026	0	0
1.19	0.117851	1.19366	-1.58041	0.655295	0.395688	1.11299	-0.232457	0.0350824	-0.144082	0.38484	-0.132696	0	0	-0.0702874	-0.222106	-0.22213	1.30404	-0.397549	0	0	-0.410802	0.0697786	-0.0642045	0.546369	-0.523249	0.70703	1.11101	0.506582	0	0	0.322196	-0.47039	0.233197	1.01467	0.658439	0	0
1.2	0.120852	1.19471	-1.58419	0.655336	0.386978	1.11388	-0.243817	0.0341818	-0.149247	0.378424	-0.132107	0	0	-0.0574151	-0.217513	-0.220479	1.28458	-0.396941	0	0	-0.409686	0.0670721	-0.0626908	0.546783	-0.523593	0.70947	1.11086	0.503839	0	0	0.319762	-0.4701	0.231072	1.01551	0.659069	0	0
1.21	0.124135	1.19591	-1.58802	0.655471	0.378352	1.11464	-0.254618	0.0329874	-0.154746	0.372526	-0.131991	0	0	-0.0450871	-0.212613	-0.219275	1.26149	-0.397273	0	0	-0.408686	0.0643075	-0.0613624	0.546341	-0.523432	0.709796	1.11087	0.50327	0	0	0.31756	-0.469859	0.228767	1.01677	0.659572	0	0
1.22	0.127842	1.19722	-1.59221	0.655709	0.369809	1.11528	-0.264762	0.0315284	-0.160509	0.367426	-0.131641	0	0	-0.0333995	-0.207192	-0.218748	1.23509	-0.398661	0	0	-0.407909	0.061461	-0.06003	0.546068	-0.523333	0.710038	1.11101	0.503833	0	0	0.315659	-0.469791	0.226704	1.01842	0.660106	0	0
1.23	0.131654	1.19859	-1.59652	0.656009	0.36134	1.11579	-0.274624	0.0299402	-0.165836	0.362827	-0.130742	0	0	-0.0224411	-0.20139	-0.218738	1.20589	-0.400812	0	0	-0.407418	0.0585901	-0.0585642	0.545646	-0.523396	0.709738	1.11155	0.504572	0	0	0.314199	-0.469781	0.224853	1.02027	0.6611	0	0
1.24	0.135598	1.2003	-1.60105	0.656362	0.352927	1.1161	-0.28344	0.027999	-0.170873	0.360162	-0.128848	0	0	-0.011821	-0.195369	-0.219571	1.17466	-0.40347	0	0	-0.406776	0.05569	-0.0570451	0.545076	-0.523349	0.70887	1.11211	0.505649	0	0	0.312967	-0.469931	0.223323	1.0223	0.663321	0	0
1.25	0.13887	1.20232	-1.60513	0.656764	0.344595	1.11623	-0.290839	0.0264397	-0.175469	0.358835	-0.126947	0	0	-0.00188478	-0.189594	-0.22139	1.14188	-0.405664	0	0	-0.406085	0.053064	-0.0552739	0.544651	-0.523345	0.707809	1.11267	0.507187	0	0	0.312012	-0.470099	0.222029	1.02442	0.667076	0	0
1.26	0.141321	1.20431	-1.60866	0.657246	0.336392	1.11624	-0.298045	0.0253839	-0.178443	0.356844	-0.125243	0	0	0.00694646	-0.18398	-0.2241	1.10788	-0.406507	0	0	-0.405744	0.0507852	-0.0531424	0.544574	-0.523538	0.706638	1.1133	0.508776	0	0	0.311567	-0.469855	0.220358	1.02637	0.670288	0	0
1.27	0.143254	1.20634	-1.61195	0.657801	0.328288	1.11614	-0.304334	0.0241634	-0.181451	0.356201	-0.122791	0	0	0.0146279	-0.178139	-0.22723	1.07283	-0.403424	0	0	-0.406114	0.0485847	-0.0496822	0.540111	-0.522311	0.695847	1.11519	0.523191	0	0	0.312489	-0.46849	0.218466	1.02789	0.675175	0	0
1.28	0.144534	1.20849	-1.61494	0.658416	0.320214	1.11589	-0.309601	0.0227432	-0.184617	0.357606	-0.120334	0	0	0.0212643	-0.172283	-0.231083	1.03708	-0.400874	0	0	-0.406029	0.0469471	-0.0474478	0.542592	-0.523613	0.699004	1.1157	0.519303	0	0	0.312189	-0.468217	0.216517	1.02974	0.676592	0	0
1.29	0.14542	1.21092	-1.61771	0.659104	0.312144	1.11552	-0.314321	0.021319	-0.187154	0.359696	-0.117129	0	0	0.0270916	-0.165975	-0.234929	1.00037	-0.396403	0	0	-0.405994	0.0455281	-0.045006	0.544488	-0.524488	0.700612	1.11624	0.517875	0	0	0.311984	-0.467939	0.21472	1.03175	0.678478	0	0
1.3	0.14606	1.21344	-1.62026	0.659898	0.304095	1.11503	-0.318485	0.0197719	-0.189091	0.362848	-0.113196	0	0	0.0318283	-0.15904	-0.238392	0.962271	-0.389247	0	0	-0.406083	0.044336	-0.0425575	0.546357	-0.524933	0.701598	1.11649	0.517163	0	0	0.311872	-0.46751	0.212806	1.03377	0.680696	0	0
1.31	0.146437	1.21597	-1.62248	0.660798	0.29605	1.11444	-0.322043	0.0181268	-0.190557	0.367061	-0.108884	0	0	0.0353929	-0.151688	-0.241472	0.92267	-0.379857	0	0	-0.406176	0.0433108	-0.0403715	0.548307	-0.52567	0.702663	1.11701	0.517502	0	0	0.311618	-0.466926	0.210439	1.03579	0.682702	0	0
1.32	0.146779	1.21854	-1.62448	0.661817	0.287977	1.11375	-0.325455	0.0165638	-0.191393	0.371245	-0.104166	0	0	0.0379286	-0.143938	-0.243989	0.881351	-0.369038	0	0	-0.406217	0.0423628	-0.0385747	0.55025	-0.526606	0.703822	1.11776	0.518698	0	0	0.311244	-0.466943	0.208944	1.03807	0.685266	0	0
1.33	0.146935	1.22125	-1.626	0.662971	0.279854	1.11294	-0.328677	0.0152226	-0.191569	0.375514	-0.0991819	0	0	0.0397574	-0.13599	-0.245873	0.838178	-0.357845	0	0	-0.406032	0.0416404	-0.037101	0.551825	-0.527315	0.704319	1.11845	0.51974	0	0	0.310744	-0.4666	0.206953	1.04016	0.687439	0	0
1.34	0.147273	1.22446	-1.62707	0.664293	0.271651	1.11201	-0.331025	0.0137272	-0.191783	0.381542	-0.0908769	0	0	0.0410539	-0.127441	-0.245028	0.792982	-0.338323	0	0	-0.405476	0.0409875	-0.0355548	0.548959	-0.525896	0.695779	1.11948	0.533172	0	0	0.310615	-0.465116	0.20405	1.04188	0.691212	0	0
1.35	0.146321	1.22758	-1.62652	0.665744	0.263382	1.11097	-0.333585	0.0125508	-0.191167	0.388215	-0.0852108	0	0	0.0416167	-0.119913	-0.244128	0.746454	-0.330784	0	0	-0.404376	0.0411653	-0.0353541	0.551835	-0.526991	0.699444	1.11954	0.528782	0	0	0.309531	-0.464218	0.201192	1.04353	0.692332	0	0
1.36	0.144564	1.23172	-1.62499	0.667224	0.254996	1.10971	-0.334488	0.0118163	-0.190278	0.396071	-0.0796201	0	0	0.0429411	-0.113298	-0.242821	0.699409	-0.323768	0	0	-0.402009	0.0414401	-0.0349421	0.553094	-0.527477	0.700611	1.11946	0.528248	0	0	0.308651	-0.463568	0.199356	1.04487	0.693593	0	0
1.37	0.143242	1.23662	-1.62346	0.668837	0.246541	1.1083	-0.334042	0.0109594	-0.189866	0.404966	-0.0717142	0	0	0.044302	-0.106216	-0.238526	0.650252	-0.315156	0	0	-0.39863	0.041573	-0.0350025	0.553648	-0.527453	0.700849	1.11902	0.529516	0	0	0.307711	-0.463061	0.197788	1.0459	0.695734	0	0
1.38	0.142795	1.24163	-1.62202	0.670823	0.237998	1.10678	-0.333417	0.00936501	-0.191379	0.414285	-0.0641884	0	0	0.0453228	-0.0986806	-0.23311	0.601008	-0.30709	0	0	-0.394826	0.0419648	-0.0359084	0.553673	-0.52761	0.70028	1.11881	0.531501	0	0	0.306704	-0.462143	0.196448	1.04659	0.697509	0	0
